<svg xmlns="http://www.w3.org/2000/svg" width="512" height="471" viewBox="0 0 62.32 57.38" fill="none">
  <path d="M14.06 2.09C8.23333 2.09 5.32 6.52333 5.32 15.39V24.89C5.32 27.4233 3.54667 28.69 0 28.69C3.54667 28.69 5.32 29.9567 5.32 32.49V41.99C5.32 50.8567 8.23333 55.29 14.06 55.29" stroke="#ffffff" stroke-linecap="round" stroke-width="4.18"/>
  <path d="M48.26 2.09C54.0867 2.09 57 6.52333 57 15.39V24.89C57 27.4233 58.7733 28.69 62.32 28.69C58.7733 28.69 57 29.9567 57 32.49V41.99C57 50.8567 54.0867 55.29 48.26 55.29" stroke="#ffffff" stroke-linecap="round" stroke-width="4.18"/>
  <path d="M31.16 11.59C33.1867 15.39 35.0867 19.19 36.86 22.99C39.3933 28.0567 40.0267 32.49 38.76 36.29C38.2533 40.09 35.72 43.2567 31.16 45.79C26.6 43.2567 24.0667 40.09 23.56 36.29C22.2933 32.49 22.9267 28.0567 25.46 22.99C27.2333 19.19 29.1333 15.39 31.16 11.59Z" fill="#EA580C"/>
  <path d="M31.16 18.05C32.68 20.5833 33.9467 23.1167 34.96 25.65C36.48 28.9433 36.7333 31.8567 35.72 34.39C35.2133 36.9233 33.6933 39.0767 31.16 40.85C28.6267 39.0767 27.1067 36.9233 26.6 34.39C25.5867 31.8567 25.84 28.9433 27.36 25.65C28.3733 23.1167 29.64 20.5833 31.16 18.05Z" fill="#F97316"/>
  <path d="M31.16 24.13C32.1733 25.9033 32.9333 27.6767 33.44 29.45C33.9467 31.9833 33.82 34.01 33.06 35.53C32.5533 36.7967 31.92 37.6833 31.16 38.19C30.4 37.6833 29.7667 36.7967 29.26 35.53C28.5 34.01 28.3733 31.9833 28.88 29.45C29.3867 27.6767 30.1467 25.9033 31.16 24.13Z" fill="#FBBF24"/>
</svg>